<svg t="1761206002658" class="CheckIn" viewBox="0 0 1024 1024" version="1.1" xmlns="http://www.w3.org/2000/svg"
  p-id="80054" width="1024"
  height="1024"><path d="M426.5 770.4c6.2 6.2 14.4 9.3 22.6 9.3s16.4-3.1 22.7-9.3l241.5-241.5c12.4-12.5 12.4-32.8 0-45.3-12.5-12.4-32.9-12.4-45.3 0L449.2 702.5 356 609.3c-12.5-12.4-32.9-12.4-45.3 0-12.4 12.5-12.4 32.9 0 45.3l115.8 115.8z" p-id="80055"></path><path d="M954.5 281c0-89.9-73.2-163-163-163H761V98.4c0-18.8-15.3-34.1-34.1-34.1s-34.1 15.3-34.1 34.1V118H331.1V98.4c0-18.8-15.3-34.1-34.1-34.1s-34.1 15.2-34.1 34.1V118h-30.4c-89.9 0-163 73.2-163 163v515.7c0 25 5.7 48.7 15.8 69.9 15.8 35.1 44.3 63.3 79.8 78.5 20.6 9.4 43.5 14.6 67.5 14.6h558.7c24 0 46.9-5.3 67.5-14.6 35.4-15.2 64.1-43.4 79.8-78.5 10.1-21.1 15.8-44.9 15.8-69.9l0.1-515.7z m-68.3 141.6v374.2c0 52.3-42.5 94.9-94.9 94.9H232.7c-52.3 0-94.9-42.5-94.9-94.9V422.6h748.4zM297.1 261.4c18.8 0 34.1-15.2 34.1-34.1v-41.1h361.6v41.1c0 18.8 15.3 34.1 34.1 34.1s34.1-15.3 34.1-34.1v-41.1h30.4c52.3 0 94.9 42.5 94.9 94.9v73.3H137.9V281c0-52.3 42.5-94.9 94.9-94.9h30.4v41.1c-0.1 19 15.1 34.2 33.9 34.2z" p-id="80056"></path></svg>