<svg t="1761206710713" class="Conf" viewBox="0 0 1024 1024" version="1.1" xmlns="http://www.w3.org/2000/svg"
  p-id="91044" width="1024"
  height="1024"><path d="M955.136 649.024a65.28 65.28 0 0 0-52.8-52.16 12.352 12.352 0 0 1-9.28-6.4 13.568 13.568 0 0 1-0.576-11.392 68.352 68.352 0 0 0-17.088-72.896 232.064 232.064 0 0 0-87.232-55.104 61.76 61.76 0 0 0-19.712-3.072 72.896 72.896 0 0 0-54.336 24.256 11.776 11.776 0 0 1-19.2 0A53.952 53.952 0 0 0 650.176 448a62.464 62.464 0 0 0-19.776 3.264 271.168 271.168 0 0 0-97.216 55.232 68.416 68.416 0 0 0-17.088 72.768 13.568 13.568 0 0 1-0.576 11.392 12.288 12.288 0 0 1-9.28 6.4 65.216 65.216 0 0 0-52.608 52.096 274.496 274.496 0 0 0 0 110.016 65.28 65.28 0 0 0 52.8 52.16 12.096 12.096 0 0 1 9.28 6.4 13.568 13.568 0 0 1 0.576 11.392 68.352 68.352 0 0 0 17.024 72.896 252.672 252.672 0 0 0 92.16 55.104 62.208 62.208 0 0 0 69.184-20.992 11.776 11.776 0 0 1 19.2 0 62.848 62.848 0 0 0 49.664 23.872 61.76 61.76 0 0 0 19.712-3.264 251.328 251.328 0 0 0 92.032-54.976 68.416 68.416 0 0 0 17.024-73.024 13.824 13.824 0 0 1 0.576-11.392 12.096 12.096 0 0 1 9.344-6.4 65.344 65.344 0 0 0 52.928-52.224 273.856 273.856 0 0 0 0-109.888z m-62.656 96a76.8 76.8 0 0 0-55.04 38.72 82.432 82.432 0 0 0-4.992 68.288 190.592 190.592 0 0 1-68.992 41.152 74.176 74.176 0 0 0-118.208 0A189.632 189.632 0 0 1 576 852.16a82.368 82.368 0 0 0-4.992-68.16 76.8 76.8 0 0 0-54.912-38.72A208.064 208.064 0 0 1 512 704a204.032 204.032 0 0 1 4.224-41.344 76.352 76.352 0 0 0 54.656-38.4A82.368 82.368 0 0 0 576 555.968a190.464 190.464 0 0 1 69.248-41.408 74.176 74.176 0 0 0 118.208 0 189.12 189.12 0 0 1 69.12 41.28 82.432 82.432 0 0 0 5.056 68.16 76.224 76.224 0 0 0 54.848 38.4 204.16 204.16 0 0 1 0 82.624z" p-id="91045"></path><path d="M704 604.16A99.968 99.968 0 1 0 800 704 98.112 98.112 0 0 0 704 604.16z m0 133.12a33.28 33.28 0 1 1 32-33.28 32.704 32.704 0 0 1-32 33.28zM416 320h-192a32 32 0 0 0 0 64h192a32 32 0 0 0 0-64zM416 512h-192a32 32 0 0 0 0 64h192a32 32 0 0 0 0-64z" p-id="91046"></path><path d="M128 128h384v192a64 64 0 0 0 64 64h256v-37.44a64 64 0 0 0-18.816-45.376L594.816 82.752A64 64 0 0 0 549.44 64H128a64 64 0 0 0-64 64v768a64 64 0 0 0 64 64h320v-64H128z m448 192V154.496L741.44 320H576z" p-id="91047"></path><path d="M352 768a32 32 0 0 0 0-64h-128a32 32 0 0 0 0 64z" p-id="91048"></path></svg>