<svg t="1761210645449" class="Confirm2" viewBox="0 0 1024 1024" version="1.1" xmlns="http://www.w3.org/2000/svg"
  p-id="11708" width="1024"
  height="1024"><path d="M493.929412 30.117647c265.637647 0 481.882353 216.244706 481.882353 481.882353s-216.244706 481.882353-481.882353 481.882353-481.882353-216.244706-481.882353-481.882353 216.244706-481.882353 481.882353-481.882353z m203.113412 306.055529l-274.672942 276.961883-136.131764-136.131765a33.490824 33.490824 0 0 0-48.489412 0 33.490824 33.490824 0 0 0 0 48.429177l161.551059 161.551058a34.695529 34.695529 0 0 0 25.419294 9.216 34.695529 34.695529 0 0 0 25.359059-9.216l299.971764-300.032a33.490824 33.490824 0 0 0 0-48.489411c-16.082824-13.854118-39.152941-13.854118-53.007058-2.288942z" p-id="11709"></path></svg>