  <svg t="1761202349657" class="Home" viewBox="0 0 1024 1024" version="1.1" xmlns="http://www.w3.org/2000/svg"
    p-id="36222" width="1024" height="1024">
    <path
      d="M858.666667 128A80 80 0 0 1 938.666667 208V810.666667a85.333333 85.333333 0 0 1-85.333334 85.333333H170.666667a85.333333 85.333333 0 0 1-85.333334-85.333333V208A80 80 0 0 1 165.333333 128h693.333334zM853.333333 213.333333H170.666667v597.333334h682.666666V213.333333z m-423.125333 148.48l163.712 170.368 119.061333-153.045333a42.666667 42.666667 0 0 1 55.466667-10.496l4.416 3.008a42.666667 42.666667 0 0 1 10.496 55.466667l-3.008 4.416-179.626667 230.933333-164.202666-170.944-104.362667 132.266667a42.666667 42.666667 0 0 1-55.530667 10.090666l-4.394666-3.050666a42.666667 42.666667 0 0 1-10.112-55.530667l3.050666-4.394667 165.034667-209.109333z"
      p-id="36223"></path>
  </svg>