<svg t="1761206358776" class="Auth" viewBox="0 0 1024 1024" version="1.1" xmlns="http://www.w3.org/2000/svg"
  p-id="85700" width="1024"
  height="1024"><path d="M902.656 128H121.344C54.784 128 0 184.32 0 253.44v517.632C0 839.68 54.784 896 121.344 896h780.8c67.072 0 121.344-56.32 121.344-125.44v-517.12C1024 184.32 969.216 128 902.656 128z m45.568 642.56c0 26.112-20.48 47.104-45.568 47.104H121.344c-25.088 0-45.568-20.992-45.568-47.104v-517.12c0-26.112 20.48-47.104 45.568-47.104h780.8c25.088 0 45.568 20.992 45.568 47.104v517.12zM814.08 532.48c27.136-28.672 43.008-67.584 43.008-107.008 0-84.992-67.072-154.112-149.504-154.112S558.08 340.48 558.08 425.472c0 39.424 15.36 78.336 43.008 107.008-60.928 38.4-98.816 107.008-98.816 180.736 0 21.504 16.896 38.912 37.888 38.912 20.992 0 37.888-17.408 37.888-38.912 0-73.728 57.856-133.632 129.536-133.632s129.536 59.904 129.536 133.632c0 21.504 16.896 38.912 37.888 38.912 20.992 0 37.888-17.408 37.888-38.912-0.512-73.728-37.888-142.336-98.816-180.736z m-107.008-30.72c-40.448 0-73.728-34.304-73.728-75.776 0-41.984 33.28-75.776 73.728-75.776s73.728 34.304 73.728 75.776c0 41.472-32.768 75.776-73.728 75.776zM149.504 407.552h334.848c20.992 0 37.888-17.408 37.888-38.912 0-21.504-16.896-38.912-37.888-38.912H149.504c-20.992 0-37.888 17.408-37.888 38.912 0 20.992 16.896 38.912 37.888 38.912z m223.232 208.896H149.504c-20.992 0-37.888 17.408-37.888 38.912 0 21.504 16.896 38.912 37.888 38.912h223.232c20.992 0 37.888-17.408 37.888-38.912 0-20.992-17.408-38.912-37.888-38.912z m83.456-143.36H149.504c-20.992 0-37.888 17.408-37.888 38.912 0 21.504 16.896 38.912 37.888 38.912h306.688c20.992 0 37.888-17.408 37.888-38.912 0-21.504-16.896-38.912-37.888-38.912z" p-id="85701"></path></svg>