<svg t="1761209180897" class="Confirm" viewBox="0 0 1024 1024" version="1.1" xmlns="http://www.w3.org/2000/svg"
  p-id="6291" width="1024"
  height="1024"><path d="M512 73.142857a438.857143 438.857143 0 1 1 0 877.714286A438.857143 438.857143 0 0 1 512 73.142857z m0 73.142857a365.714286 365.714286 0 1 0 0 731.428572A365.714286 365.714286 0 0 0 512 146.285714z" p-id="6292"></path><path d="M323.437714 506.587429a36.571429 36.571429 0 0 1 46.665143-4.242286l5.12 4.242286 94.72 94.793142L680.740571 390.582857a36.571429 36.571429 0 0 1 55.954286 46.665143l-4.242286 5.12L495.908571 678.912a36.571429 36.571429 0 0 1-46.665142 4.242286l-5.12-4.242286-120.612572-120.685714a36.571429 36.571429 0 0 1 0-51.712z" p-id="6293"></path></svg>