<svg t="1761206568210" class="Tunnels" viewBox="0 0 1024 1024" version="1.1" xmlns="http://www.w3.org/2000/svg"
  p-id="87674" width="1024"
  height="1024"><path d="M515.413333 34.133333a477.866667 477.866667 0 0 0-477.866666 477.866667v443.733333a34.133333 34.133333 0 0 0 24.234666 34.133334 34.133333 34.133333 0 0 0 9.898667 0 34.133333 34.133333 0 0 0 28.672-15.36L291.498667 682.666667h441.344l197.973333 292.181333A34.133333 34.133333 0 0 0 993.28 955.733333V512a477.866667 477.866667 0 0 0-477.866667-477.866667zM716.8 614.4H307.2v-102.4a204.8 204.8 0 0 1 409.6 0z m208.213333 230.058667l-139.946666-204.8V512a273.066667 273.066667 0 0 0-546.133334 0v126.293333l-133.12 203.093334V512a409.6 409.6 0 0 1 819.2 0z" p-id="87675"></path><path d="M477.866667 921.6h68.266666v66.56h-68.266666zM477.866667 819.2h68.266666v66.56h-68.266666zM477.866667 716.8h68.266666v66.56h-68.266666z" p-id="87676"></path></svg>