<svg t="1761206864236" class="Using" viewBox="0 0 1024 1024" version="1.1" xmlns="http://www.w3.org/2000/svg"
  p-id="94240" width="1024"
  height="1024"><path d="M262.26622984 790.36502687c-6.31318575 0-12.63215068 0-18.94533643 6.31202992-37.88720536 12.63099484-25.26083386 75.78250159 18.94533643 75.78250159h555.72331908c25.25736635 0 37.88720536-12.63215068 37.88720537-31.57633129 6.31896494-25.26083386-6.31318575-50.51820021-37.88720537-50.51820022H262.26622984z m0 0" p-id="94241"></path><path d="M931.65925587 203.06537651v707.28138722c0 18.94649227-12.63099484 31.57517545-31.57517544 31.57517546H186.48488409c-50.51935605 0-101.0387121-37.88604952-101.0387121-107.35074201 0-56.83832099 37.88720536-107.35652119 82.09337566-107.3565212h650.45000127c18.9441806 0 37.88720536-18.94649227 37.88720537-37.89529622V45.18834342c0-18.94302476-18.9441806-37.88836119-37.88720537-37.8883612H243.32089341c-132.61388754 0-239.97040875 107.35767703-239.97040876 239.97156459v618.87482581c18.9441806 88.40771725 82.09568733 151.55922398 164.189063 151.559224H900.08408043c63.15150674 0 113.67086278-50.52051189 113.67086278-113.66970695V203.06537651c-0.00115584-56.8325418-82.09568733-56.8325418-82.09568734 0z m-846.21308388 44.2061703c0-88.4123406 69.46238081-157.87587725 157.87472142-157.87587725h536.78029432v562.03766067H167.53954765c-31.57517545 0-63.1503509 6.31318575-82.09337566 25.25967802V247.27154681z m0 0" p-id="94242"></path></svg>